HIERARCHY
ROOT hips
{
  OFFSET 0 10.6860622 2.3727825e-15
  CHANNELS 6 Xposition Yposition Zposition Yrotation Xrotation Zrotation
  JOINT leftUpperLeg
  {
    OFFSET 0.6642549969 -0.9402397400000004 0
    CHANNELS 3 Yrotation Xrotation Zrotation
    JOINT leftLowerLeg
    {
      OFFSET 0 -3.997221335632195 0
      CHANNELS 3 Yrotation Xrotation Zrotation
      JOINT leftFoot
      {
        OFFSET -0.13777839790000004 -4.6145792000000005 -0.22186036399999998
        CHANNELS 3 Yrotation Xrotation Zrotation
        JOINT leftToes
        {
          OFFSET -0.03777410834999995 -0.9130806927000008 0.85230013
          CHANNELS 3 Yrotation Xrotation Zrotation
          End Site
          {
            OFFSET -0.03777410834999995 -0.9130806927000008 0.85230013
          }
        }
      }
    }
  }
  JOINT rightUpperLeg
  {
    OFFSET -0.6642778626 -0.9402397400000004 0
    CHANNELS 3 Yrotation Xrotation Zrotation
    JOINT rightLowerLeg
    {
      OFFSET 0 -3.997221452859387 0
      CHANNELS 3 Yrotation Xrotation Zrotation
      JOINT rightFoot
      {
        OFFSET 0.1377926176 -4.6145792000000005 -0.22185782299999995
        CHANNELS 3 Yrotation Xrotation Zrotation
        JOINT rightToes
        {
          OFFSET 0.037780746850000047 -0.9130806927000008 0.85230167
          CHANNELS 3 Yrotation Xrotation Zrotation
          End Site
          {
            OFFSET 0.037780746850000047 -0.9130806927000008 0.85230167
          }
        }
      }
    }
  }
  JOINT spine
  {
    OFFSET 0 0.13988381660000015 0
    CHANNELS 3 Yrotation Xrotation Zrotation
    JOINT chest
    {
      OFFSET 0 0.6191039003973773 0
      CHANNELS 3 Yrotation Xrotation Zrotation
      JOINT upperChest
      {
        OFFSET 0 0.9855186130586943 0
        CHANNELS 3 Yrotation Xrotation Zrotation
        JOINT leftShoulder
        {
          OFFSET 0.1807663869 1.5087829790000005 0
          CHANNELS 3 Yrotation Xrotation Zrotation
          JOINT leftUpperArm
          {
            OFFSET 0.5985063006419806 0 0
            CHANNELS 3 Yrotation Xrotation Zrotation
            JOINT leftLowerArm
            {
              OFFSET 2.2993332369501065 0 0
              CHANNELS 3 Yrotation Xrotation Zrotation
              JOINT leftHand
              {
                OFFSET 2.395047042602395 0 0
                CHANNELS 3 Yrotation Xrotation Zrotation
                JOINT leftIndexProximal
                {
                  OFFSET 0.5766295810000004 0.04556643899499946 0.17265095988184
                  CHANNELS 3 Yrotation Xrotation Zrotation
                  JOINT leftIndexIntermediate
                  {
                    OFFSET 0.2957229000000008 -0.019352197700001517 -0.007932640616999987
                    CHANNELS 3 Yrotation Xrotation Zrotation
                    JOINT leftIndexDistal
                    {
                      OFFSET 0.19008243099999922 -0.012484908149998475 -0.002786250786000012
                      CHANNELS 3 Yrotation Xrotation Zrotation
                      End Site
                      {
                        OFFSET 0.19008243099999922 -0.012484908149998475 -0.002786250786000012
                      }
                    }
                  }
                }
                JOINT leftMiddleProximal
                {
                  OFFSET 0.5834975091000001 0.0524350405149987 0.02204081888183999
                  CHANNELS 3 Yrotation Xrotation Zrotation
                  JOINT leftMiddleIntermediate
                  {
                    OFFSET 0.33880573540000003 -0.019871473270000717 -0.00000971183179999946
                    CHANNELS 3 Yrotation Xrotation Zrotation
                    JOINT leftMiddleDistal
                    {
                      OFFSET 0.20676022730000088 -0.012221336379999448 0.0001471936708000235
                      CHANNELS 3 Yrotation Xrotation Zrotation
                      End Site
                      {
                        OFFSET 0.20676022730000088 -0.012221336379999448 0.0001471936708000235
                      }
                    }
                  }
                }
                JOINT leftLittleProximal
                {
                  OFFSET 0.5344154683999995 -0.012880921405001189 -0.24414037221816004
                  CHANNELS 3 Yrotation Xrotation Zrotation
                  JOINT leftLittleIntermediate
                  {
                    OFFSET 0.21758961730000093 -0.011650919939999227 0.011893592810000034
                    CHANNELS 3 Yrotation Xrotation Zrotation
                    JOINT leftLittleDistal
                    {
                      OFFSET 0.1475273964999999 -0.008152365682999818 0.006001092492999946
                      CHANNELS 3 Yrotation Xrotation Zrotation
                      End Site
                      {
                        OFFSET 0.1475273964999999 -0.008152365682999818 0.006001092492999946
                      }
                    }
                  }
                }
                JOINT leftRingProximal
                {
                  OFFSET 0.5799399463000003 0.026911854694997794 -0.12150566991816003
                  CHANNELS 3 Yrotation Xrotation Zrotation
                  JOINT leftRingIntermediate
                  {
                    OFFSET 0.26167887460000006 -0.013480186499999602 0.010996293000000053
                    CHANNELS 3 Yrotation Xrotation Zrotation
                    JOINT leftRingDistal
                    {
                      OFFSET 0.17667108799999987 -0.008990287899999228 0.0055541023999999065
                      CHANNELS 3 Yrotation Xrotation Zrotation
                      End Site
                      {
                        OFFSET 0.17667108799999987 -0.008990287899999228 0.0055541023999999065
                      }
                    }
                  }
                }
                JOINT leftThumbProximal
                {
                  OFFSET 0.11018806699999972 -0.09448718900500053 0.17047963138184
                  CHANNELS 3 Yrotation Xrotation Zrotation
                  JOINT leftThumbIntermediate
                  {
                    OFFSET 0.31062601459999983 -0.08126270900000132 0.15443142000000007
                    CHANNELS 3 Yrotation Xrotation Zrotation
                    JOINT leftThumbDistal
                    {
                      OFFSET 0.21627175790000086 -0.08833193599999878 0.018771167799999988
                      CHANNELS 3 Yrotation Xrotation Zrotation
                      End Site
                      {
                        OFFSET 0.21627175790000086 -0.08833193599999878 0.018771167799999988
                      }
                    }
                  }
                }
              }
            }
          }
        }
        JOINT neck
        {
          OFFSET 0 1.5463305265074576 0
          CHANNELS 3 Yrotation Xrotation Zrotation
          JOINT head
          {
            OFFSET 0 0.8456443600000344 0
            CHANNELS 3 Yrotation Xrotation Zrotation
            JOINT leftEye
            {
              OFFSET 0.30408573140000006 0.5104519199999995 0.1276382305
              CHANNELS 3 Yrotation Xrotation Zrotation
              End Site
              {
                OFFSET 0.30408573140000006 0.5104519199999995 0.1276382305
              }
            }
            JOINT rightEye
            {
              OFFSET -0.30409491089999996 0.5104519199999995 0.1276379445
              CHANNELS 3 Yrotation Xrotation Zrotation
              End Site
              {
                OFFSET -0.30409491089999996 0.5104519199999995 0.1276379445
              }
            }
            JOINT jaw
            {
              OFFSET -3.155239131000001e-7 -0.11984121820000082 0.60178107
              CHANNELS 3 Yrotation Xrotation Zrotation
              End Site
              {
                OFFSET -3.155239131000001e-7 -0.11984121820000082 0.60178107
              }
            }
          }
        }
        JOINT rightShoulder
        {
          OFFSET -0.1807303465 1.5087829790000005 0
          CHANNELS 3 Yrotation Xrotation Zrotation
          JOINT rightUpperArm
          {
            OFFSET -0.5985063796536958 0 0
            CHANNELS 3 Yrotation Xrotation Zrotation
            JOINT rightLowerArm
            {
              OFFSET -2.2993322059002854 0 0
              CHANNELS 3 Yrotation Xrotation Zrotation
              JOINT rightHand
              {
                OFFSET -2.395045314457259 0 0
                CHANNELS 3 Yrotation Xrotation Zrotation
                JOINT rightIndexProximal
                {
                  OFFSET -0.5764487688300002 0.0441371204405987 0.17361932004999997
                  CHANNELS 3 Yrotation Xrotation Zrotation
                  JOINT rightIndexIntermediate
                  {
                    OFFSET -0.29573011380000047 -0.01934826376999843 -0.007698921482999974
                    CHANNELS 3 Yrotation Xrotation Zrotation
                    JOINT rightIndexDistal
                    {
                      OFFSET -0.19008373999999884 -0.012503266380000655 -0.0026365778999999897
                      CHANNELS 3 Yrotation Xrotation Zrotation
                      End Site
                      {
                        OFFSET -0.19008373999999884 -0.012503266380000655 -0.0026365778999999897
                      }
                    }
                  }
                }
                JOINT rightMiddleProximal
                {
                  OFFSET -0.5834852037300005 0.05211639405060153 0.02307162440000001
                  CHANNELS 3 Yrotation Xrotation Zrotation
                  JOINT rightMiddleIntermediate
                  {
                    OFFSET -0.33880114510000003 -0.019952774050000954 0.0002455003561999819
                    CHANNELS 3 Yrotation Xrotation Zrotation
                    JOINT rightMiddleDistal
                    {
                      OFFSET -0.20675694929999955 -0.012273788999999091 0.00030209124000002766
                      CHANNELS 3 Yrotation Xrotation Zrotation
                      End Site
                      {
                        OFFSET -0.20675694929999955 -0.012273788999999091 0.00030209124000002766
                      }
                    }
                  }
                }
                JOINT rightLittleProximal
                {
                  OFFSET -0.5346811737299992 -0.011214256288399227 -0.24363941305000003
                  CHANNELS 3 Yrotation Xrotation Zrotation
                  JOINT rightLittleIntermediate
                  {
                    OFFSET -0.21757715980000092 -0.011771559690000988 0.01201554387
                    CHANNELS 3 Yrotation Xrotation Zrotation
                    JOINT rightLittleDistal
                    {
                      OFFSET -0.1475201849000004 -0.00822055339600003 0.006082065407000015
                      CHANNELS 3 Yrotation Xrotation Zrotation
                      End Site
                      {
                        OFFSET -0.1475201849000004 -0.00822055339600003 0.006082065407000015
                      }
                    }
                  }
                }
                JOINT rightRingProximal
                {
                  OFFSET -0.5800810755299999 0.027657985680600072 -0.12066365025000003
                  CHANNELS 3 Yrotation Xrotation Zrotation
                  JOINT rightRingIntermediate
                  {
                    OFFSET -0.26166445029999974 -0.013623118409999302 0.011164098990000045
                    CHANNELS 3 Yrotation Xrotation Zrotation
                    JOINT rightRingDistal
                    {
                      OFFSET -0.17666387530000027 -0.009072900100000503 0.005668185599999959
                      CHANNELS 3 Yrotation Xrotation Zrotation
                      End Site
                      {
                        OFFSET -0.17666387530000027 -0.009072900100000503 0.005668185599999959
                      }
                    }
                  }
                }
                JOINT rightThumbProximal
                {
                  OFFSET -0.10997596379000074 -0.09577489355940072 0.16989765924999997
                  CHANNELS 3 Yrotation Xrotation Zrotation
                  JOINT rightThumbIntermediate
                  {
                    OFFSET -0.31036620999999986 -0.08229339117999834 0.15440884469999996
                    CHANNELS 3 Yrotation Xrotation Zrotation
                    JOINT rightThumbDistal
                    {
                      OFFSET -0.21631306399999906 -0.08825326400000111 0.018656797720000014
                      CHANNELS 3 Yrotation Xrotation Zrotation
                      End Site
                      {
                        OFFSET -0.21631306399999906 -0.08825326400000111 0.018656797720000014
                      }
                    }
                  }
                }
              }
            }
          }
        }
      }
    }
  }
}
MOTION
Frames: 8
Frame Time: 0.03333333333333333
-4.831435022335582 -8.999394419488503 1.8775955698677194 -180 -60.99677572088303 -1.2656797981518037e-14 41.101180088422126 -35.59295756528064 8.840425019103337 -97.61758118313095 69.13151582469449 -54.848597300987564 28.199803272766072 19.556667431545776 -12.337873456663717 0 0 0 -40.35161039994527 -35.922905678625376 -10.129667984158376 94.67132735493745 68.50239946127184 51.72790817023298 -27.048018489459906 20.6665888594784 12.843764030822795 0 0 0 -0.33008343088699676 -19.987270325469538 -2.1321530215837847 1.1355435690544975 38.07781792638695 -0.5730620654730381 0 0 0 -30.71165550088498 15.682763232854853 -15.43670824019966 38.84135832952566 23.94637417193232 -38.99470124416408 -78.71297248760636 -1.07398217845353 5.551989143610078 -7.328161248376415 -6.039296526824422 -10.234794830963592 0 0 0 0 0 0 0 0 0 0 0 0 0 0 0 0 0 0 0 0 0 0 0 0 0 0 0 0 0 0 0 0 0 0 0 0 0 0 0 0 0 0 0 0 0 0 -27.455416127515555 0 0 -20.001710583073734 0 0 0 0 0 0 0 0 0 0 30.791249351263698 16.020695827462017 14.477939031073264 -39.167216622226576 24.286847400875914 39.40148847292931 78.70846389672957 -1.0719817561985052 -5.554653441317546 7.296971910974457 -6.075622943376823 9.990540464795915 0 0 0 0 0 0 0 0 0 0 0 0 0 0 0 0 0 0 0 0 0 0 0 0 0 0 0 0 0 0 0 0 0 0 0 0 0 0 0 0 0 0 0 0 0
-4.831435022335582 -8.999394419488503 1.8775955698677194 -180 -60.99677572088303 -1.2656797981518037e-14 42.09324553613834 -36.070779998040145 8.582350248936732 -99.32747857521427 68.49490815678361 -56.2586687329889 28.64668957672758 19.54556698156397 -11.792902610070344 0 0 0 -41.298293038208236 -36.41158894332791 -9.897139069480538 96.22898622321301 67.9613073398574 53.01526149068549 -27.399109797290016 20.65358274743767 12.300615136432246 0 0 0 -0.3296772350388372 -19.78737736709179 -2.133379317657094 1.1273575581997715 37.54536314399654 -0.5864056048016992 0 0 0 -30.521264797107555 15.78199392350207 -15.571257558652478 38.803446692086446 23.901399239680178 -38.922238008341914 -78.71297248760636 -1.07398217845353 5.551989143610078 -7.237077651331603 -5.875896423830257 -10.4514404530667 0 0 0 0 0 0 0 0 0 0 0 0 0 0 0 0 0 0 0 0 0 0 0 0 0 0 0 0 0 0 0 0 0 0 0 0 0 0 0 0 0 0 0 0 0 0 -26.943944437939393 0 0 -20.001710583073734 0 0 0 0 0 0 0 0 0 0 30.597401513964744 16.10635257695204 14.64593108680103 -39.118160108145695 24.2293787592911 39.31445222358575 78.70846389672957 -1.0719817561985052 -5.554653441317546 7.206474700276334 -5.911034357140452 10.21580338845954 0 0 0 0 0 0 0 0 0 0 0 0 0 0 0 0 0 0 0 0 0 0 0 0 0 0 0 0 0 0 0 0 0 0 0 0 0 0 0 0 0 0 0 0 0
-4.831435022335582 -8.999394419488503 1.8775955698677194 -180 -60.99677572088303 -1.2656797981518037e-14 43.09405448410751 -36.544887127861784 8.312436221331122 -100.94804337094713 67.84376183674335 -57.57876608945152 29.093406428053385 19.530459564353578 -11.248085578083654 0 0 0 -42.25345775269881 -36.897092616628214 -9.653071704827976 97.71878917110027 67.4077217334991 54.23425701086711 -27.75002084103992 20.637461238931227 11.757614406053738 0 0 0 -0.32927611881381197 -19.587483067857544 -2.134602546698678 1.119384477850247 37.012903833740715 -0.5995597864330452 0 0 0 -30.331023495916032 15.881654902436857 -15.705529680251283 38.76549162704041 23.856469820468043 -38.84977217209934 -78.71297248760636 -1.07398217845353 5.551989143610078 -7.14664212276748 -5.712155575148645 -10.667762022294996 0 0 0 0 0 0 0 0 0 0 0 0 0 0 0 0 0 0 0 0 0 0 0 0 0 0 0 0 0 0 0 0 0 0 0 0 0 0 0 0 0 0 0 0 0 0 -26.432473879372836 0 0 -20.001710583073734 0 0 0 0 0 0 0 0 0 0 30.403729185583366 16.19255307263546 14.813693198610782 -39.069025507157086 24.171977223259923 39.227395272868435 78.70846389672957 -1.0719817561985052 -5.554653441317546 7.11665417038352 -5.74609355261539 10.4407382165601 0 0 0 0 0 0 0 0 0 0 0 0 0 0 0 0 0 0 0 0 0 0 0 0 0 0 0 0 0 0 0 0 0 0 0 0 0 0 0 0 0 0 0 0 0
-4.831435022335582 -8.999394419488503 1.8775955698677194 -180 -60.99677572088303 -1.2656797981518037e-14 45.12962814287265 -37.48435435593045 7.7344630071355205 -103.95252937938425 66.4989898101457 -59.97857387687923 29.98712883723093 19.48818695697916 -10.15786757201241 0 0 0 -44.19635791036049 -37.860883863614774 -9.127877026764297 100.51457750226476 66.26405113597107 56.48562493069532 -28.45179739229077 20.59584152017708 10.67114538723631 0 0 0 -0.3284896712293581 -19.18764460162618 -2.137041207876155 1.1040405269491333 35.94697251433269 -0.6253498116849837 0 0 0 -29.95089422780438 16.082312366506425 -15.973312949585473 38.689419420615195 23.766737892635373 -38.70480864998366 -78.71297248760636 -1.07398217845353 5.551989143610078 -6.967666920138395 -5.383578430385236 -11.09955599931114 0 0 0 0 0 0 0 0 0 0 0 0 0 0 0 0 0 0 0 0 0 0 0 0 0 0 0 0 0 0 0 0 0 0 0 0 0 0 0 0 0 0 0 0 0 0 -25.406149645877612 0 0 -20.001710583073734 0 0 0 0 0 0 0 0 0 0 30.016812303403483 16.366635212767815 15.148625202125613 -38.970541362762496 24.057386095837877 39.05324089832311 78.70846389672957 -1.0719817561985052 -5.554653441317546 6.938997657005815 -5.415079010313412 10.88975798551721 0 0 0 0 0 0 0 0 0 0 0 0 0 0 0 0 0 0 0 0 0 0 0 0 0 0 0 0 0 0 0 0 0 0 0 0 0 0 0 0 0 0 0 0 0
-4.831435022335582 -8.999394419488503 1.8775955698677194 -180 -60.99677572088303 -1.2656797981518037e-14 46.164364815923705 -37.94901062173236 7.426097557377452 -105.34596195661591 65.80777233046953 -61.067866789381384 30.43394289862708 19.46101766753351 -9.612675112246576 0 0 0 -45.1841488336926 -38.33853264993232 -8.846406496418458 101.82633249171697 65.67574027469307 57.52381719644951 -28.80254386288177 20.57034586582266 10.127832511029657 0 0 0 -0.32810384208211174 -18.987704729663065 -2.138255753854865 1.0966606789174136 35.41358667820763 -0.6379937267493898 0 0 0 -29.761007172520053 16.183301918457378 -16.106813422690948 38.651315543826094 23.72194083678623 -38.632315009964294 -78.71297248760636 -1.07398217845353 5.551989143610078 -6.879129322286318 -5.21875333266958 -11.315025474496172 0 0 0 0 0 0 0 0 0 0 0 0 0 0 0 0 0 0 0 0 0 0 0 0 0 0 0 0 0 0 0 0 0 0 0 0 0 0 0 0 0 0 0 0 0 0 -24.891365898647432 0 0 -20.001710583073734 0 0 0 0 0 0 0 0 0 0 29.82356848644534 16.45451163049967 15.315783613774952 -38.92118442906606 24.000188723799337 38.966134692037954 78.70846389672957 -1.0719817561985052 -5.554653441317546 6.851164096565861 -5.249016869028571 11.113842167383282 0 0 0 0 0 0 0 0 0 0 0 0 0 0 0 0 0 0 0 0 0 0 0 0 0 0 0 0 0 0 0 0 0 0 0 0 0 0 0 0 0 0 0 0 0
-4.831435022335582 -8.999394419488503 1.8775955698677194 -180 -60.99677572088303 -1.2656797981518037e-14 47.2088696156476 -38.40916708346658 7.105112423819623 -106.67133996901458 65.10630029512994 -62.08830610598081 30.88037980404487 19.429842256027182 -9.067822087493594 0 0 0 -46.18150080258646 -38.81226863836294 -8.552540210881848 103.08329558569062 65.07809790484177 58.506603678497605 -29.15295325893948 20.54173809119678 9.58479233153674 0 0 0 -0.3277229533955089 -18.787764759690692 -2.1394675880144254 1.0894724985933937 34.880198912702284 -0.6504713041093708 0 0 0 -29.5712673982299 16.28471494901689 -16.240031786272137 38.61316210853471 23.677187133924356 -38.55981283679612 -78.71297248760636 -1.07398217845353 5.551989143610078 -6.791237516269496 -5.053598262539576 -11.530183054891696 0 0 0 0 0 0 0 0 0 0 0 0 0 0 0 0 0 0 0 0 0 0 0 0 0 0 0 0 0 0 0 0 0 0 0 0 0 0 0 0 0 0 0 0 0 0 -24.376580397453637 0 0 -20.001710583073734 0 0 0 0 0 0 0 0 0 0 29.63050776336936 16.542926631160977 15.482708794292817 -38.87175347050309 23.943059734171598 38.879013637359535 78.70846389672957 -1.0719817561985052 -5.554653441317546 6.764006074067645 -5.082614504167928 11.33761043568364 0 0 0 0 0 0 0 0 0 0 0 0 0 0 0 0 0 0 0 0 0 0 0 0 0 0 0 0 0 0 0 0 0 0 0 0 0 0 0 0 0 0 0 0 0
-4.831435022335582 -8.999394419488503 1.8775955698677194 -180 -60.99677572088303 -1.2656797981518037e-14 49.332597874674086 -39.31709119020499 6.4231715051984635 -109.14078520688324 63.673409212727385 -63.94425928219642 31.77256449362743 19.35543549109495 -7.978538202264305 0 0 0 -48.21001309224127 -39.74916380082032 -7.925575998790035 105.44838878723769 63.855705449119256 60.32062870196265 -29.853031597807504 20.475158694360207 8.498994890793625 0 0 0 -0.3269757874331642 -18.38784782256536 -2.141883069517863 1.0756425922911077 33.812771010651254 -0.674963178532901 0 0 0 -29.192167660523694 16.488842063212388 -16.50566559031124 38.53671092177778 23.587811363229623 -38.414779886026125 -78.71297248760636 -1.07398217845353 5.551989143610078 -6.617358623233685 -4.722253892714294 -11.959648824355952 0 0 0 0 0 0 0 0 0 0 0 0 0 0 0 0 0 0 0 0 0 0 0 0 0 0 0 0 0 0 0 0 0 0 0 0 0 0 0 0 0 0 0 0 0 0 -23.34392516824911 0 0 -20.001710583073734 0 0 0 0 0 0 0 0 0 0 29.24486173322423 16.72141363572523 15.815921854200017 -38.772683337867214 23.82901191231588 38.704718279784345 78.70846389672957 -1.0719817561985052 -5.554653441317546 6.591682573200178 -4.748739998018781 11.784290756713503 0 0 0 0 0 0 0 0 0 0 0 0 0 0 0 0 0 0 0 0 0 0 0 0 0 0 0 0 0 0 0 0 0 0 0 0 0 0 0 0 0 0 0 0 0
-4.831435022335582 -8.999394419488503 1.8775955698677194 -180 -60.99677572088303 -1.2656797981518037e-14 50.411702900105624 -39.76413878667226 6.062016258857407 -110.29247785834973 62.9437872656661 -64.78746966477127 32.21811941591484 19.312215042064697 -7.434309168866252 0 0 0 -49.24114372030891 -40.21163936128134 -7.592208199337644 106.56155519033987 63.23235232615634 61.156957917334466 -30.20256110100763 20.437196584186463 7.956394271094009 0 0 0 -0.32660942830781464 -18.18787686659205 -2.1430870019929533 1.068993717734728 33.27882325996127 -0.6869853766680489 0 0 0 -29.002816631048695 16.59154925114876 -16.638072940066753 38.498410108164556 23.54318728868614 -38.34225139760685 -78.71297248760636 -1.07398217845353 5.551989143610078 -6.531375861454265 -4.556077323616628 -12.173951093896171 0 0 0 0 0 0 0 0 0 0 0 0 0 0 0 0 0 0 0 0 0 0 0 0 0 0 0 0 0 0 0 0 0 0 0 0 0 0 0 0 0 0 0 0 0 0 -22.826131867865126 0 0 -20.001710583073734 0 0 0 0 0 0 0 0 0 0 29.052275533810572 16.81146799490761 15.982190288868045 -38.723028086985444 23.772083452861843 38.617546310582824 78.70846389672957 -1.0719817561985052 -5.554653441317546 6.506521780312322 -4.581283118129372 12.007200724339466 0 0 0 0 0 0 0 0 0 0 0 0 0 0 0 0 0 0 0 0 0 0 0 0 0 0 0 0 0 0 0 0 0 0 0 0 0 0 0 0 0 0 0 0 0
